<!DOCTYPE svg PUBLIC "-//W3C//DTD SVG 1.1//EN" "http://www.w3.org/Graphics/SVG/1.1/DTD/svg11.dtd">
<!-- Uploaded to: SVG Repo, www.svgrepo.com, Transformed by: SVG Repo Mixer Tools -->
<svg fill="#27a449" height="800px" width="800px" version="1.1" id="Layer_1" xmlns="http://www.w3.org/2000/svg" xmlns:xlink="http://www.w3.org/1999/xlink" viewBox="0 0 512 512" xml:space="preserve">
<g id="SVGRepo_bgCarrier" stroke-width="0"/>
<g id="SVGRepo_tracerCarrier" stroke-linecap="round" stroke-linejoin="round"/>
<g id="SVGRepo_iconCarrier"> <g> <g> <path d="M448,0H64c-2.208,0-4,1.792-4,4v504c0,2.212,1.792,4,4,4h384c2.208,0,4-1.788,4-4V4C452,1.792,450.208,0,448,0z M444,504 H68V8h376V504z"/> </g> </g> <g> <g> <path d="M424,24H88c-2.208,0-4,1.792-4,4v436c0,2.212,1.792,4,4,4s4-1.788,4-4V32h332c2.208,0,4-1.792,4-4S426.208,24,424,24z"/> </g> </g> <g> <g> <path d="M424,44c-2.208,0-4,1.792-4,4v432H88c-2.208,0-4,1.788-4,4c0,2.212,1.792,4,4,4h336c2.208,0,4-1.788,4-4V48 C428,45.792,426.208,44,424,44z"/> </g> </g> <g> <g> <path d="M400,48H112c-2.208,0-4,1.792-4,4v408c0,2.212,1.792,4,4,4h288c2.208,0,4-1.788,4-4V52C404,49.792,402.208,48,400,48z M396,456H116V56h280V456z"/> </g> </g> <g> <g> <path d="M400,140H112c-2.208,0-4,1.792-4,4v24c0,2.208,1.792,4,4,4h288c2.208,0,4-1.792,4-4v-24C404,141.792,402.208,140,400,140z M396,164H116v-16h280V164z"/> </g> </g> <g> <g> <path d="M90.828,25.172l-22-22c-1.564-1.564-4.092-1.564-5.656,0s-1.564,4.092,0,5.656l22,22C85.952,31.608,86.976,32,88,32 s2.048-0.392,2.828-1.172C92.392,29.264,92.392,26.736,90.828,25.172z"/> </g> </g> <g> <g> <path d="M450.828,3.172c-1.564-1.564-4.092-1.564-5.656,0l-22,22c-1.564,1.564-1.564,4.092,0,5.656 C423.952,31.608,424.976,32,426,32s2.048-0.392,2.828-1.172l22-22C452.392,7.264,452.392,4.736,450.828,3.172z"/> </g> </g> <g> <g> <path d="M450.828,505.172l-24-24c-1.564-1.564-4.092-1.564-5.656,0c-1.564,1.564-1.564,4.092,0,5.656l24,24 c0.78,0.78,1.804,1.172,2.828,1.172s2.048-0.392,2.828-1.172C452.392,509.264,452.392,506.736,450.828,505.172z"/> </g> </g> <g> <g> <path d="M90.828,481.172c-1.564-1.564-4.092-1.564-5.656,0l-24,24c-1.564,1.564-1.564,4.092,0,5.656 C61.952,511.608,62.976,512,64,512s2.048-0.392,2.828-1.172l24-24C92.392,485.264,92.392,482.736,90.828,481.172z"/> </g> </g> <g> <g> <path d="M234.324,261.108l-94.496-94.492c-1.564-1.564-4.092-1.564-5.656,0c-1.564,1.564-1.564,4.092,0,5.656l94.496,94.492 c0.78,0.78,1.804,1.172,2.828,1.172c1.02,0,2.044-0.388,2.828-1.172C235.888,265.2,235.888,262.672,234.324,261.108z"/> </g> </g> <g> <g> <path d="M294.328,321.12l-40.004-40.012c-1.564-1.564-4.092-1.564-5.656,0c-1.564,1.564-1.564,4.092,0,5.656l40.004,40.012 c0.78,0.78,1.804,1.172,2.828,1.172s2.048-0.388,2.828-1.172C295.892,325.212,295.892,322.684,294.328,321.12z"/> </g> </g> <g> <g> <path d="M385.828,456.428L214.252,284.844c-1.564-1.564-4.092-1.564-5.656,0c-1.564,1.564-1.564,4.092,0,5.656l171.576,171.584 c0.78,0.78,1.804,1.172,2.828,1.172s2.048-0.388,2.828-1.172C387.392,460.52,387.392,457.992,385.828,456.428z"/> </g> </g> </g>
</svg>